<svg width="160" height="160" viewBox="0 0 160 160" fill="none" xmlns="http://www.w3.org/2000/svg">
<rect width="160" height="160" rx="80" fill="#F5F6F7"/>
<g clip-path="url(#clip0_70_2404)">
<path d="M118.976 42.2219C123.197 46.4406 111.495 64.9869 109.516 66.9662C107.538 68.9416 102.514 67.1241 98.2946 62.9037C94.0734 58.685 92.2549 53.6591 94.2334 51.6806C96.2105 49.7016 114.756 38.0006 118.976 42.2219ZM59.7827 46.6856C53.3383 43.0294 44.1683 38.9619 41.2515 41.8794C38.2958 44.8337 42.5121 54.21 46.2071 60.6659C49.4981 54.9485 54.1644 50.1431 59.7827 46.6856Z" fill="#B5010F"/>
<path d="M112.538 65.5112C113.132 67.5237 113.025 69.1862 112.063 70.1469C109.815 72.3956 103.743 70.0019 98.269 64.7925C97.8813 64.446 97.5034 64.0888 97.1356 63.7212C95.1562 61.7412 93.6162 59.6337 92.6312 57.6928C90.714 54.2534 90.2343 51.2159 91.6834 49.7666C92.4731 48.9778 93.7365 48.7628 95.2778 49.04C96.2828 48.4044 97.4694 47.6962 98.7703 46.9709C93.48 44.2116 87.4653 42.6531 81.085 42.6531C59.9228 42.6531 42.7668 59.8062 42.7668 80.9703C42.7668 102.131 59.9231 119.286 81.085 119.286C102.247 119.286 119.402 102.131 119.402 80.9703C119.402 74.1359 117.609 67.7275 114.475 62.1716C113.798 63.4075 113.14 64.5397 112.538 65.5112Z" fill="#B5010F"/>
</g>
<defs>
<clipPath id="clip0_70_2404">
<rect width="80" height="78.752" fill="white" transform="translate(40 40.624)"/>
</clipPath>
</defs>
</svg>
