<svg width="81" height="77" viewBox="0 0 81 77" fill="none" xmlns="http://www.w3.org/2000/svg">
<path d="M35.9272 51.3977C33.806 51.3977 31.9168 51.0331 30.2596 50.304C28.6119 49.5653 27.3098 48.5521 26.3533 47.2642C25.4064 45.9669 24.9187 44.4706 24.8903 42.7756H31.0835C31.1213 43.4858 31.3533 44.1108 31.7795 44.6506C32.2151 45.1809 32.7927 45.5928 33.5124 45.8864C34.2321 46.1799 35.0418 46.3267 35.9414 46.3267C36.8789 46.3267 37.7075 46.161 38.4272 45.8295C39.1469 45.4981 39.7103 45.0388 40.1175 44.4517C40.5247 43.8646 40.7283 43.1875 40.7283 42.4205C40.7283 41.6439 40.5105 40.9574 40.0749 40.3608C39.6488 39.7547 39.0333 39.2812 38.2283 38.9403C37.4329 38.5994 36.4859 38.429 35.3874 38.429H32.6744V33.9119H35.3874C36.3155 33.9119 37.1346 33.7509 37.8448 33.429C38.5645 33.107 39.1232 32.6619 39.521 32.0938C39.9187 31.5161 40.1175 30.8438 40.1175 30.0767C40.1175 29.3475 39.9424 28.7083 39.592 28.1591C39.2511 27.6004 38.7681 27.1648 38.1431 26.8523C37.5276 26.5398 36.8079 26.3835 35.984 26.3835C35.1507 26.3835 34.3884 26.535 33.6971 26.8381C33.0058 27.1316 32.4518 27.553 32.0352 28.1023C31.6185 28.6515 31.396 29.2955 31.3675 30.0341H25.4727C25.5011 28.358 25.9793 26.8807 26.9073 25.6023C27.8353 24.3239 29.0853 23.3248 30.6573 22.6051C32.2388 21.8759 34.0238 21.5114 36.0124 21.5114C38.02 21.5114 39.7766 21.8759 41.2823 22.6051C42.788 23.3343 43.9575 24.3191 44.7908 25.5597C45.6336 26.7907 46.0503 28.1733 46.0408 29.7074C46.0503 31.3362 45.5437 32.6951 44.521 33.7841C43.5077 34.8731 42.1867 35.5644 40.5579 35.858V36.0852C42.698 36.3598 44.3268 37.1032 45.4442 38.3153C46.5711 39.518 47.1299 41.0237 47.1204 42.8324C47.1299 44.4896 46.6516 45.9621 45.6857 47.25C44.7293 48.5379 43.4083 49.5511 41.7227 50.2898C40.0371 51.0284 38.1052 51.3977 35.9272 51.3977Z" fill="#4E9AA5"/>
<rect x="2" y="2" width="68" height="68" rx="34" stroke="#4E9AA5" stroke-width="4"/>
<circle opacity="0.25" cx="45" cy="41" r="36" fill="#4E9AA5"/>
</svg>
