<svg width="81" height="77" viewBox="0 0 81 77" fill="none" xmlns="http://www.w3.org/2000/svg">
<path d="M25.7603 51V46.5682L36.1154 36.9801C36.9961 36.1278 37.7347 35.3608 38.3313 34.679C38.9374 33.9972 39.3967 33.3295 39.7092 32.6761C40.0217 32.0133 40.1779 31.2983 40.1779 30.5312C40.1779 29.679 39.9838 28.9451 39.5955 28.3295C39.2073 27.7045 38.677 27.2263 38.0046 26.8949C37.3323 26.554 36.57 26.3835 35.7177 26.3835C34.8275 26.3835 34.051 26.5634 33.3881 26.9233C32.7253 27.2831 32.2139 27.7992 31.854 28.4716C31.4942 29.1439 31.3143 29.9441 31.3143 30.8722H25.4762C25.4762 28.9687 25.9071 27.3163 26.7688 25.9148C27.6306 24.5133 28.8379 23.429 30.391 22.6619C31.944 21.8949 33.7338 21.5114 35.7603 21.5114C37.8436 21.5114 39.6571 21.8807 41.2006 22.6193C42.7537 23.3485 43.9611 24.3617 44.8228 25.6591C45.6845 26.9564 46.1154 28.4432 46.1154 30.1193C46.1154 31.2178 45.8976 32.3021 45.462 33.3722C45.0359 34.4422 44.2736 35.6307 43.1751 36.9375C42.0766 38.2348 40.5283 39.7926 38.5302 41.6108L34.283 45.7727V45.9716H46.4989V51H25.7603Z" fill="#4E9AA5"/>
<rect x="2" y="2" width="68" height="68" rx="34" stroke="#4E9AA5" stroke-width="4"/>
<circle opacity="0.25" cx="45" cy="41" r="36" fill="#4E9AA5"/>
</svg>
